<svg width="63" height="18" viewBox="0 0 63 18" fill="none" xmlns="http://www.w3.org/2000/svg">
<rect x="53.3817" y="15.6923" width="2.40458" height="2.30769" fill="#C56018"/>
<rect x="59.1527" y="11.0769" width="2.40458" height="2.30769" fill="#C56018"/>
<rect x="57.229" y="15.6923" width="2.40458" height="2.30769" fill="#C56018"/>
<rect x="60.5954" y="14.3077" width="2.40458" height="2.30769" fill="#C56018"/>
<rect x="55.7863" y="10.6154" width="2.40458" height="2.30769" fill="#C56018"/>
<rect x="52.4199" y="9.69231" width="2.40458" height="2.30769" fill="#C56018"/>
<rect x="53.3817" y="6.46155" width="2.40458" height="2.30769" fill="#C56018"/>
<rect x="56.7481" y="5.07692" width="2.40458" height="2.30769" fill="#C56018"/>
<rect x="60.5954" y="6.46155" width="2.40458" height="2.30769" fill="#C56018"/>
<rect x="48.0916" y="6" width="2.40458" height="2.30769" fill="#C56018"/>
<rect x="41.3588" y="6" width="2.40458" height="2.30769" fill="#C56018"/>
<rect x="44.7252" y="15.2308" width="2.40458" height="2.30769" fill="#C56018"/>
<rect x="44.7252" y="11.5385" width="2.40458" height="2.30769" fill="#C56018"/>
<rect x="44.7252" y="7.84616" width="2.40458" height="2.30769" fill="#C56018"/>
<rect x="44.7252" y="4.15384" width="2.40458" height="2.30769" fill="#C56018"/>
<rect x="44.7252" y="0.461548" width="2.40458" height="2.30769" fill="#C56018"/>
<rect x="29.3359" y="15.2308" width="2.40458" height="2.30769" fill="#C56018"/>
<rect x="35.1069" y="10.6154" width="2.40458" height="2.30769" fill="#C56018"/>
<rect x="33.1832" y="15.2308" width="2.40458" height="2.30769" fill="#C56018"/>
<rect x="36.5496" y="13.8462" width="2.40458" height="2.30769" fill="#C56018"/>
<rect x="31.7404" y="10.1538" width="2.40458" height="2.30769" fill="#C56018"/>
<rect x="28.3741" y="9.23076" width="2.40458" height="2.30769" fill="#C56018"/>
<rect x="29.3359" y="6" width="2.40458" height="2.30769" fill="#C56018"/>
<rect x="32.7023" y="4.61539" width="2.40458" height="2.30769" fill="#C56018"/>
<rect x="36.5496" y="6" width="2.40458" height="2.30769" fill="#C56018"/>
<rect x="22.1221" y="13.8462" width="2.40458" height="2.30769" fill="#C56018"/>
<rect x="23.084" y="10.1538" width="2.40458" height="2.30769" fill="#C56018"/>
<rect x="22.1221" y="6.46155" width="2.40458" height="2.30769" fill="#C56018"/>
<rect x="18.7557" y="5.07692" width="2.40458" height="2.30769" fill="#C56018"/>
<rect x="15.3893" y="6.46155" width="2.40458" height="2.30769" fill="#C56018"/>
<rect x="18.7557" y="15.2308" width="2.40458" height="2.30769" fill="#C56018"/>
<rect x="15.3893" y="13.8462" width="2.40458" height="2.30769" fill="#C56018"/>
<rect x="13.9466" y="10.1538" width="2.40458" height="2.30769" fill="#C56018"/>
<rect width="2.40458" height="2.30769" fill="#C56018"/>
<rect x="4.32825" y="7.84616" width="2.40458" height="2.30769" fill="#C56018"/>
<rect x="8.17557" y="8.30769" width="2.40458" height="2.30769" fill="#C56018"/>
<rect x="9.61832" y="5.07692" width="2.40458" height="2.30769" fill="#C56018"/>
<rect x="8.17557" y="1.84615" width="2.40458" height="2.30769" fill="#C56018"/>
<rect x="4.32825" width="2.40458" height="2.30769" fill="#C56018"/>
<rect y="14.7692" width="2.40458" height="2.30769" fill="#C56018"/>
<rect y="11.0769" width="2.40458" height="2.30769" fill="#C56018"/>
<rect y="7.38461" width="2.40458" height="2.30769" fill="#C56018"/>
<rect y="3.69232" width="2.40458" height="2.30769" fill="#C56018"/>
</svg>
